# xmcd CD database file
#
# Track frame offsets:
#	150
#	14794
#	28768
#	44405
#	60146
#	73969
#	86603
#	98733
#	116705
#	129101
#	145790
#	164521
#	181957
#	198802
#	216409
#	235630
#	250594
#	266891
#	282972
#	300966
#
# Disc length: 4205 seconds
#
# Revision: 3
# Processed by: cddbd v1.5.2PL0 Copyright (c) Steve Scherf et al.
# Submitted via: CDex 1.50Beta3
#
DISCID=19106b14
DTITLE=Sérgio Reis - Dose Dupla (Marcando Estrada e Ventos Uivantes
DYEAR=1900
DGENRE=Sertaneja
TTITLE0=Estrada Da Saudade
TTITLE1=Gaucho Largada
TTITLE2=Um Violeiro Toca
TTITLE3=Vaca Estrela E Boi Fubá
TTITLE4=Prato Do Dia
TTITLE5=Pinha No Pinheiro
TTITLE6=Quebra-Cama
TTITLE7=Vaso Quebrado
TTITLE8=Cavalo Enxuto
TTITLE9=Mais Uma Vez
TTITLE10=Ventos Uivantes
TTITLE11=Segura Peão
TTITLE12=Tocando Em Frente
TTITLE13=Cabocla Tereza
TTITLE14=Viola Calada
TTITLE15=Vanerão Da Coroa
TTITLE16=Passarim Cantandor
TTITLE17=Quantanamera
TTITLE18=Bicho Do Mato
TTITLE19=Doida Ela Não É  Não
EXTD=
EXTT0=
EXTT1=
EXTT2=
EXTT3=
EXTT4=
EXTT5=
EXTT6=
EXTT7=
EXTT8=
EXTT9=
EXTT10=
EXTT11=
EXTT12=
EXTT13=
EXTT14=
EXTT15=
EXTT16=
EXTT17=
EXTT18=
EXTT19=
PLAYORDER=
